<?xml version="1.0" encoding="UTF-8" standalone="no"?>
<svg
   xmlns:dc="http://purl.org/dc/elements/1.1/"
   xmlns:cc="http://creativecommons.org/ns#"
   xmlns:rdf="http://www.w3.org/1999/02/22-rdf-syntax-ns#"
   xmlns:svg="http://www.w3.org/2000/svg"
   xmlns="http://www.w3.org/2000/svg"
   viewBox="0 0 540.92535 268.85599"
   height="268.85599"
   width="540.92535"
   xml:space="preserve"
   id="svg2"
   version="1.1"><metadata
     id="metadata8"><rdf:RDF><cc:Work
         rdf:about=""><dc:format>image/svg+xml</dc:format><dc:type
           rdf:resource="http://purl.org/dc/dcmitype/StillImage" /></cc:Work></rdf:RDF></metadata><defs
     id="defs6"><clipPath
       id="clipPath24"
       clipPathUnits="userSpaceOnUse"><path
         id="path22"
         d="M 0,201.642 H 405.694 V 0 H 0 Z" /></clipPath></defs><g
     transform="matrix(1.3333333,0,0,-1.3333333,0,268.856)"
     id="g10"><g
       transform="translate(124.9821,112.2426)"
       id="g12"><path
         id="path14"
         style="fill:#ffffff;fill-opacity:1;fill-rule:nonzero;stroke:none"
         d="m 0,0 -48.511,-112.243 h 27.267 l 9.355,23.781 h 43.597 l 9.67,-23.781 H 69.28 L 20.451,0 Z M 9.512,-32.657 23.305,-67.534 H -4.122 Z" /></g><path
       id="path16"
       style="fill:#ffffff;fill-opacity:1;fill-rule:nonzero;stroke:none"
       d="m 249.429,0 h 24.73 v 112.243 h -24.73 z" /><g
       id="g18"><g
         clip-path="url(#clipPath24)"
         id="g20"><g
           transform="translate(20.9039,116.3141)"
           id="g26"><path
             id="path28"
             style="fill:#ffffff;fill-opacity:1;fill-rule:nonzero;stroke:none"
             d="m 0,0 c 0.773,0.677 1.516,1.389 2.225,2.138 0.711,0.748 1.27,1.541 1.676,2.377 0.407,0.836 0.565,1.708 0.478,2.618 -0.088,0.909 -0.57,1.865 -1.448,2.868 -0.777,0.887 -1.59,1.44 -2.438,1.659 -0.849,0.218 -1.692,0.2 -2.533,-0.054 C -2.879,11.352 -3.702,10.948 -4.507,10.395 -5.313,9.842 -6.06,9.264 -6.747,8.663 l -4.683,-4.098 7.219,-8.249 z m -20.904,4.467 10.569,9.249 c 1.461,1.278 2.99,2.377 4.589,3.295 1.599,0.917 3.216,1.512 4.853,1.781 1.637,0.268 3.258,0.12 4.866,-0.445 C 5.58,17.781 7.136,16.639 8.64,14.921 10.571,12.715 11.578,10.335 11.664,7.78 11.749,5.225 10.799,2.8 8.812,0.505 L 28.658,-5.874 22.127,-11.59 3.801,-4.866 -0.151,-8.325 11.128,-21.214 5.714,-25.951 Z" /></g><g
           transform="translate(31.8512,147.2472)"
           id="g30"><path
             id="path32"
             style="fill:#ffffff;fill-opacity:1;fill-rule:nonzero;stroke:none"
             d="M 0,0 22.429,14.625 25.984,9.172 9.58,-1.524 15.006,-9.845 30.549,0.29 l 3.555,-5.452 -15.543,-10.134 5.987,-9.182 17.264,11.257 3.555,-5.452 -23.291,-15.186 z" /></g><g
           transform="translate(65.8112,168.111)"
           id="g34"><path
             id="path36"
             style="fill:#ffffff;fill-opacity:1;fill-rule:nonzero;stroke:none"
             d="M 0,0 6.482,3.121 21.193,-27.436 36.676,-19.981 39.5,-25.846 17.534,-36.42 Z" /></g><g
           transform="translate(128.34,166.1832)"
           id="g38"><path
             id="path40"
             style="fill:#ffffff;fill-opacity:1;fill-rule:nonzero;stroke:none"
             d="m 0,0 -10.786,13.884 -1.219,-17.58 z m -16.088,21.212 5.948,1.832 28.534,-33.509 -7.856,-2.419 -6.323,7.731 -16.751,-5.157 -0.771,-9.915 -7.694,-2.369 z" /></g><g
           transform="translate(149.2208,189.943)"
           id="g42"><path
             id="path44"
             style="fill:#ffffff;fill-opacity:1;fill-rule:nonzero;stroke:none"
             d="M 0,0 -12.215,-2.068 -13.301,4.349 18.222,9.684 19.309,3.267 7.093,1.2 l 5.66,-33.438 -7.094,-1.201 z" /></g><g
           transform="translate(176.0841,200.049)"
           id="g46"><path
             id="path48"
             style="fill:#ffffff;fill-opacity:1;fill-rule:nonzero;stroke:none"
             d="m 0,0 7.177,0.503 2.827,-40.322 -7.176,-0.503 z" /></g><g
           transform="translate(201.2648,181.4391)"
           id="g50"><path
             id="path52"
             style="fill:#ffffff;fill-opacity:1;fill-rule:nonzero;stroke:none"
             d="m 0,0 c -0.12,-2.166 0.104,-4.179 0.667,-6.041 0.563,-1.861 1.417,-3.49 2.56,-4.887 1.142,-1.397 2.538,-2.523 4.188,-3.376 1.649,-0.854 3.519,-1.338 5.61,-1.454 2.09,-0.115 4.012,0.159 5.764,0.825 1.752,0.666 3.273,1.63 4.562,2.894 1.29,1.262 2.317,2.788 3.083,4.575 0.766,1.788 1.209,3.765 1.329,5.931 0.111,2.013 -0.118,3.913 -0.686,5.698 -0.569,1.784 -1.426,3.367 -2.569,4.745 -1.144,1.378 -2.549,2.485 -4.219,3.321 -1.669,0.835 -3.55,1.311 -5.64,1.427 C 12.558,13.773 10.647,13.507 8.915,12.859 7.183,12.212 5.673,11.266 4.384,10.021 3.095,8.777 2.071,7.299 1.31,5.588 0.548,3.877 0.111,2.014 0,0 m -7.55,-0.04 c 0.178,3.23 0.873,6.137 2.082,8.72 1.21,2.582 2.807,4.752 4.792,6.511 1.984,1.758 4.304,3.069 6.963,3.932 2.658,0.863 5.547,1.209 8.664,1.037 3.156,-0.137 6.019,-0.762 8.587,-1.875 2.568,-1.113 4.752,-2.655 6.549,-4.621 1.798,-1.968 3.157,-4.291 4.076,-6.972 0.919,-2.681 1.29,-5.638 1.111,-8.867 -0.175,-3.155 -0.864,-5.995 -2.07,-8.52 -1.208,-2.525 -2.813,-4.667 -4.816,-6.424 -2.004,-1.757 -4.345,-3.086 -7.025,-3.986 -2.679,-0.9 -5.598,-1.283 -8.754,-1.146 -3.117,0.172 -5.949,0.834 -8.497,1.984 -2.547,1.15 -4.71,2.699 -6.49,4.647 -1.779,1.947 -3.13,4.241 -4.051,6.885 -0.921,2.641 -1.296,5.54 -1.121,8.695" /></g><g
           transform="translate(250.9606,197.13)"
           id="g54"><path
             id="path56"
             style="fill:#ffffff;fill-opacity:1;fill-rule:nonzero;stroke:none"
             d="m 0,0 9.265,-2.256 11.921,-33.812 0.109,-0.027 7.106,29.178 6.989,-1.702 -9.563,-39.274 -8.877,2.161 -12.079,34.85 -0.11,0.027 -7.335,-30.121 -6.989,1.702 z" /></g><g
           transform="translate(314.9352,167.9078)"
           id="g58"><path
             id="path60"
             style="fill:#ffffff;fill-opacity:1;fill-rule:nonzero;stroke:none"
             d="M 0,0 C -0.28,1.312 -0.909,2.449 -1.889,3.413 -2.869,4.377 -4.01,5.13 -5.311,5.671 -6.083,5.993 -6.868,6.215 -7.661,6.339 -8.455,6.463 -9.223,6.452 -9.962,6.307 -10.703,6.161 -11.377,5.854 -11.983,5.386 -12.591,4.917 -13.07,4.261 -13.42,3.418 c -0.527,-1.265 -0.489,-2.414 0.11,-3.447 0.601,-1.033 1.449,-2.066 2.544,-3.099 1.097,-1.033 2.322,-2.1 3.679,-3.2 1.355,-1.1 2.517,-2.324 3.48,-3.673 0.963,-1.35 1.607,-2.875 1.932,-4.575 0.321,-1.702 0.023,-3.659 -0.897,-5.873 -0.834,-2.003 -1.93,-3.598 -3.289,-4.785 -1.36,-1.187 -2.868,-2.013 -4.524,-2.478 -1.658,-0.465 -3.413,-0.6 -5.27,-0.404 -1.857,0.195 -3.699,0.672 -5.525,1.433 -2.32,0.965 -4.391,2.28 -6.214,3.944 -1.821,1.665 -3.127,3.733 -3.913,6.204 l 7.027,2.767 c 0.296,-1.566 0.961,-2.967 1.994,-4.199 1.033,-1.234 2.287,-2.158 3.763,-2.771 0.773,-0.322 1.59,-0.538 2.452,-0.648 0.86,-0.111 1.694,-0.087 2.503,0.071 0.808,0.159 1.539,0.482 2.196,0.972 0.656,0.489 1.161,1.156 1.512,1.999 0.57,1.371 0.569,2.607 -0.002,3.711 -0.572,1.104 -1.402,2.18 -2.491,3.231 -1.087,1.05 -2.309,2.125 -3.666,3.226 -1.355,1.101 -2.52,2.316 -3.489,3.647 -0.973,1.332 -1.623,2.839 -1.953,4.523 -0.33,1.683 -0.035,3.631 0.886,5.845 0.804,1.933 1.893,3.438 3.269,4.515 1.375,1.076 2.899,1.813 4.568,2.211 1.67,0.397 3.425,0.481 5.267,0.251 1.843,-0.231 3.625,-0.704 5.348,-1.42 1.968,-0.817 3.75,-1.91 5.347,-3.275 C 4.82,6.756 6.072,5.081 6.977,3.097 Z" /></g><g
           transform="translate(334.7125,168.3209)"
           id="g62"><path
             id="path64"
             style="fill:#ffffff;fill-opacity:1;fill-rule:nonzero;stroke:none"
             d="m 0,0 6.16,-3.714 -8.311,-13.789 16.184,-9.756 8.313,13.789 6.16,-3.714 -20.869,-34.618 -6.16,3.714 9.195,15.255 -16.185,9.757 -9.196,-15.255 -6.16,3.714 z" /></g><g
           transform="translate(373.9147,142.882)"
           id="g66"><path
             id="path68"
             style="fill:#ffffff;fill-opacity:1;fill-rule:nonzero;stroke:none"
             d="m 0,0 5.687,-4.405 -24.754,-31.954 -5.689,4.405 z" /></g><g
           transform="translate(386.0485,109.7028)"
           id="g70"><path
             id="path72"
             style="fill:#ffffff;fill-opacity:1;fill-rule:nonzero;stroke:none"
             d="m 0,0 c 0.742,-0.709 1.541,-1.417 2.394,-2.123 0.851,-0.707 1.746,-1.243 2.684,-1.611 0.939,-0.368 1.883,-0.479 2.835,-0.335 0.952,0.145 1.901,0.714 2.847,1.706 0.867,0.909 1.361,1.817 1.488,2.721 0.125,0.905 0.023,1.791 -0.308,2.658 C 11.609,3.883 11.112,4.712 10.446,5.504 9.781,6.296 9.103,7.021 8.414,7.675 L 4.693,11.218 -3.143,2.991 Z m 3.736,20.645 9.84,-9.372 c 1.405,-1.338 2.631,-2.769 3.68,-4.292 1.046,-1.522 1.757,-3.08 2.133,-4.673 0.375,-1.593 0.34,-3.215 -0.105,-4.868 -0.444,-1.654 -1.44,-3.293 -2.989,-4.919 -1.76,-1.847 -3.494,-3.032 -5.202,-3.559 -1.711,-0.527 -3.399,-0.588 -5.065,-0.184 -1.665,0.403 -3.312,1.171 -4.94,2.302 -1.631,1.131 -3.219,2.433 -4.762,3.902 l -3.719,3.544 -11.538,-12.113 -5.21,4.961 z" /></g><g
           transform="translate(224.9772,21.0499)"
           id="g74"><path
             id="path76"
             style="fill:#ffffff;fill-opacity:1;fill-rule:nonzero;stroke:none"
             d="M 0,0 C -1.981,0 -3.703,-0.952 -4.979,-2.752 -5.23,-3.106 -5.44,-3.461 -5.613,-3.79 -5.786,-3.461 -5.996,-3.106 -6.247,-2.752 -7.523,-0.952 -9.245,0 -11.226,0 c -3.674,0 -6.361,-3.086 -6.361,-6.854 0,-4.206 3.388,-7.086 8.516,-11.448 0.956,-0.812 1.944,-1.652 2.996,-2.572 0.132,-0.117 0.297,-0.176 0.462,-0.176 0.165,0 0.33,0.059 0.462,0.176 1.052,0.92 2.04,1.76 2.995,2.572 5.128,4.361 8.516,7.242 8.516,11.448 C 6.362,-3.085 3.673,0 0,0" /></g><g
           transform="translate(303.2955,21.0499)"
           id="g78"><path
             id="path80"
             style="fill:#ffffff;fill-opacity:1;fill-rule:nonzero;stroke:none"
             d="m 0,0 c -1.98,0 -3.701,-0.952 -4.979,-2.752 -0.25,-0.354 -0.46,-0.709 -0.633,-1.038 -0.174,0.329 -0.384,0.684 -0.635,1.038 -1.275,1.8 -2.998,2.752 -4.98,2.752 -3.673,0 -6.361,-3.086 -6.361,-6.854 0,-4.206 3.39,-7.086 8.517,-11.448 0.956,-0.812 1.943,-1.652 2.996,-2.572 0.133,-0.117 0.298,-0.176 0.463,-0.176 0.164,0 0.329,0.059 0.462,0.176 1.051,0.92 2.04,1.76 2.995,2.572 5.128,4.361 8.516,7.242 8.516,11.448 C 6.361,-3.085 3.673,0 0,0" /></g></g></g></g></svg>