<svg enable-background="new 0 0 864 864" height="864" viewBox="0 0 864 864" width="864" xml:space="preserve" xmlns="http://www.w3.org/2000/svg"><path d="m331.83 334.867h20.451l48.829 112.243h-27.902l-9.67-23.781h-43.597l-9.354 23.781h-27.268zm9.512 32.658-13.634 34.877h27.427z" fill="#455754"/><path d="m456.276 334.867h24.731v112.243h-24.731z" fill="#455754"/><path d="m158.779 532.216c1.384-137.054 113.616-247.058 250.676-245.673 137.074 1.377 247.07 113.623 245.693 250.698-1.385 137.066-113.623 247.062-250.697 245.679-137.059-1.385-247.056-113.631-245.672-250.704z" fill="none"/><text transform="matrix(.7386 -.6742 .6742 .7386 226.4224 363.4878)"><tspan fill="#455754" font-family="'Avenir-Heavy'" font-size="57.0927" x="0" y="0">R</tspan><tspan fill="#455754" font-family="'Avenir-Heavy'" font-size="57.0927" rotate="8.209" x="36.325" y=".063">e</tspan><tspan fill="#455754" font-family="'Avenir-Heavy'" font-size="57.0927" rotate="15.758" x="71.282" y="5.31">l</tspan><tspan fill="#455754" font-family="'Avenir-Heavy'" font-size="57.0927" rotate="24.05" x="100.262" y="13.077">a</tspan><tspan fill="#455754" font-family="'Avenir-Heavy'" font-size="57.0927" rotate="32.705" x="138.02" y="30.302">t</tspan><tspan fill="#455754" font-family="'Avenir-Heavy'" font-size="57.0927" rotate="38.481" x="165.944" y="48.784">i</tspan><tspan fill="#455754" font-family="'Avenir-Heavy'" font-size="57.0927" rotate="45.8" x="179.426" y="58.259">o</tspan><tspan fill="#455754" font-family="'Avenir-Heavy'" font-size="57.0927" rotate="56.508" x="212.53" y="92.424">n</tspan><tspan fill="#455754" font-family="'Avenir-Heavy'" font-size="57.0927" rotate="65.642" x="237.283" y="130.78">s</tspan><tspan fill="#455754" font-family="'Avenir-Heavy'" font-size="57.0927" rotate="74.381" x="251.228" y="160.761">h</tspan><tspan fill="#455754" font-family="'Avenir-Heavy'" font-size="57.0927" rotate="81.206" x="261.972" y="202.239">i</tspan><tspan fill="#455754" font-family="'Avenir-Heavy'" font-size="57.0927" rotate="87.19" x="264.963" y="218.581">p</tspan><tspan fill="#455754" font-family="'Avenir-Heavy'" font-size="57.0927" rotate="93.287" x="266.192" y="254.127"></tspan></text><g fill="#455754"><path d="m431.825 426.06c-1.981 0-3.703.952-4.979 2.752-.251.354-.461.709-.634 1.038-.173-.329-.383-.684-.634-1.038-1.276-1.8-2.998-2.752-4.979-2.752-3.674 0-6.361 3.086-6.361 6.854 0 4.206 3.388 7.086 8.516 11.448.956.812 1.944 1.652 2.996 2.572.132.117.297.176.462.176s.33-.059.462-.176c1.052-.92 2.04-1.76 2.995-2.572 5.128-4.361 8.517-7.242 8.517-11.448.001-3.769-2.688-6.854-6.361-6.854z"/><path d="m510.144 426.06c-1.981 0-3.702.952-4.979 2.752-.251.354-.461.709-.634 1.038-.174-.329-.384-.684-.635-1.038-1.275-1.8-2.998-2.752-4.979-2.752-3.674 0-6.361 3.086-6.361 6.854 0 4.206 3.389 7.086 8.516 11.448.956.812 1.944 1.652 2.996 2.572.133.117.298.176.463.176.164 0 .329-.059.462-.176 1.052-.92 2.04-1.76 2.995-2.572 5.128-4.361 8.517-7.242 8.517-11.448 0-3.769-2.689-6.854-6.361-6.854z"/></g></svg>