<svg enable-background="new 0 0 360 360" height="360" viewBox="0 0 360 360" width="360" xmlns="http://www.w3.org/2000/svg"><g fill="#455754"><path d="m103.453 150.869h15.643c2.056 0 4.005.2 5.852.6 1.846.4 3.463 1.066 4.853 1.999 1.389.933 2.493 2.189 3.312 3.768.818 1.58 1.228 3.549 1.228 5.909 0 2.854-.742 5.281-2.227 7.279-1.484 1.998-3.654 3.264-6.508 3.796l10.277 17.071h-10.677l-8.45-16.158h-4.396v16.158h-8.906v-40.422zm8.906 16.728h5.252c.799 0 1.646-.029 2.541-.086.894-.057 1.703-.228 2.426-.514s1.322-.732 1.798-1.342c.476-.608.714-1.465.714-2.569 0-1.028-.21-1.846-.628-2.455-.419-.608-.952-1.075-1.599-1.399-.647-.323-1.39-.542-2.227-.657-.837-.114-1.655-.171-2.455-.171h-5.824v9.193z"/><path d="m174.075 150.869h7.365l17.585 40.422h-10.049l-3.482-8.564h-15.701l-3.369 8.564h-9.82zm3.426 11.761-4.91 12.561h9.878z"/><path d="m223.289 150.869h8.906v40.422h-8.906z"/><path d="m152.099 164.793c-1.458 0-2.724.701-3.662 2.024-.185.261-.339.521-.466.764-.127-.242-.282-.503-.467-.764-.938-1.324-2.205-2.024-3.662-2.024-2.703 0-4.679 2.27-4.679 5.042 0 3.094 2.492 5.213 6.264 8.421.703.598 1.43 1.215 2.204 1.892.097.086.219.129.34.129s.242-.043.34-.129c.774-.677 1.501-1.294 2.203-1.892 3.772-3.208 6.265-5.327 6.265-8.421 0-2.772-1.978-5.042-4.68-5.042z"/><path d="m211.694 164.776c-1.458 0-2.725.701-3.662 2.024-.186.261-.339.521-.467.764-.128-.242-.282-.503-.468-.764-.938-1.324-2.205-2.024-3.662-2.024-2.702 0-4.679 2.27-4.679 5.042 0 3.094 2.493 5.213 6.264 8.421.704.598 1.431 1.215 2.204 1.892.098.086.22.129.341.129.12 0 .242-.043.34-.129.773-.677 1.5-1.294 2.203-1.892 3.772-3.208 6.265-5.327 6.265-8.421 0-2.773-1.977-5.042-4.679-5.042z"/></g></svg>